# xmcd
#
# Track frame offsets: 
#        150
#        7819
#        18668
#        32144
#        44656
#        63046
#        79551
#        96093
#        118526
#        133744
#        153743
#        164563
#        179958
#        195268
#
# Disc length: 2661 seconds
#
# Revision: 0
# Processed by: cddbd v1.5.2PL0 Copyright (c) Steve Scherf et al.
# Submitted via: ExactAudioCopy v0.99pb3
#
DISCID=b70a630e
DTITLE=Davina And The Vagabond Stomp - Black Cloud
DYEAR=2011
DGENRE=Blues
TTITLE0=Vagabond Stomp
TTITLE1=Black Cloud
TTITLE2=Disappears
TTITLE3=Start Runnin
TTITLE4=Sugar Moon
TTITLE5=Pushpin
TTITLE6=Lipstick And Chrome
TTITLE7=River
TTITLE8=Pocket
TTITLE9=Let's Bring It Back
TTITLE10=Bee Sting
TTITLE11=Crosseyed
TTITLE12=Carry Him With You
TTITLE13=Vagabond Stomp
EXTD=
EXTT0=
EXTT1=
EXTT2=
EXTT3=
EXTT4=
EXTT5=
EXTT6=
EXTT7=
EXTT8=
EXTT9=
EXTT10=
EXTT11=
EXTT12=
EXTT13=
PLAYORDER=
